<svg width="155" height="463" viewBox="0 0 155 463" fill="none" xmlns="http://www.w3.org/2000/svg">
<path d="M13.7865 38.08C12.1332 38.08 10.7465 37.52 9.62648 36.4C8.50648 35.28 7.94648 33.8933 7.94648 32.24C7.94648 30.5867 8.50648 29.2 9.62648 28.08C10.7465 26.96 12.1332 26.4 13.7865 26.4C15.3865 26.4 16.7465 26.96 17.8665 28.08C18.9865 29.2 19.5465 30.5867 19.5465 32.24C19.5465 33.8933 18.9865 35.28 17.8665 36.4C16.7465 37.52 15.3865 38.08 13.7865 38.08ZM18.2665 96.64C18.2665 100.96 17.1732 104.08 14.9865 106C12.8532 107.973 9.73315 108.96 5.62648 108.96H0.906484V101.28H4.02648C5.89315 101.28 7.19982 100.907 7.94648 100.16C8.74648 99.4667 9.14648 98.2933 9.14648 96.64V43.92H18.2665V96.64ZM49.3602 88.72C45.2002 88.72 41.4402 87.7867 38.0802 85.92C34.7202 84 32.0802 81.3333 30.1602 77.92C28.2402 74.4533 27.2802 70.4533 27.2802 65.92C27.2802 61.44 28.2669 57.4667 30.2402 54C32.2136 50.5333 34.9069 47.8667 38.3202 46C41.7336 44.1333 45.5469 43.2 49.7602 43.2C53.9736 43.2 57.7869 44.1333 61.2002 46C64.6136 47.8667 67.3069 50.5333 69.2802 54C71.2536 57.4667 72.2402 61.44 72.2402 65.92C72.2402 70.4 71.2269 74.3733 69.2002 77.84C67.1736 81.3067 64.4002 84 60.8802 85.92C57.4136 87.7867 53.5736 88.72 49.3602 88.72ZM49.3602 80.8C51.7069 80.8 53.8936 80.24 55.9202 79.12C58.0002 78 59.6802 76.32 60.9602 74.08C62.2402 71.84 62.8802 69.12 62.8802 65.92C62.8802 62.72 62.2669 60.0267 61.0402 57.84C59.8136 55.6 58.1869 53.92 56.1602 52.8C54.1336 51.68 51.9469 51.12 49.6002 51.12C47.2536 51.12 45.0669 51.68 43.0402 52.8C41.0669 53.92 39.4936 55.6 38.3202 57.84C37.1469 60.0267 36.5602 62.72 36.5602 65.92C36.5602 70.6667 37.7602 74.3467 40.1602 76.96C42.6136 79.52 45.6802 80.8 49.3602 80.8Z" fill="#FBBDCC"/>
<path d="M109.264 63.92V108H100.144V102.8C98.7038 104.613 96.8104 106.053 94.4638 107.12C92.1704 108.133 89.7171 108.64 87.1038 108.64C83.6371 108.64 80.5171 107.92 77.7438 106.48C75.0238 105.04 72.8638 102.907 71.2638 100.08C69.7171 97.2533 68.9438 93.84 68.9438 89.84V63.92H77.9838V88.48C77.9838 92.4267 78.9704 95.4667 80.9438 97.6C82.9171 99.68 85.6104 100.72 89.0238 100.72C92.4371 100.72 95.1304 99.68 97.1038 97.6C99.1304 95.4667 100.144 92.4267 100.144 88.48V63.92H109.264ZM125.937 58.08C124.284 58.08 122.897 57.52 121.777 56.4C120.657 55.28 120.097 53.8933 120.097 52.24C120.097 50.5867 120.657 49.2 121.777 48.08C122.897 46.96 124.284 46.4 125.937 46.4C127.537 46.4 128.897 46.96 130.017 48.08C131.137 49.2 131.697 50.5867 131.697 52.24C131.697 53.8933 131.137 55.28 130.017 56.4C128.897 57.52 127.537 58.08 125.937 58.08ZM130.417 63.92V108H121.297V63.92H130.417Z" fill="#FBBDCC"/>
</svg>
