<svg id="Layer_1" data-name="Layer 1" xmlns="http://www.w3.org/2000/svg" viewBox="0 0 447.91 357.3"><defs><style>.cls-1{fill:#4f738d;}</style></defs><path class="cls-1" d="M389.75,295.31V454H356.92V435.28a54.2,54.2,0,0,1-20.45,15.55A64.81,64.81,0,0,1,310,456.3q-18.72,0-33.69-7.77a57.4,57.4,0,0,1-23.33-23q-8.35-15.27-8.35-36.87V295.31h32.54v88.42q0,21.31,10.66,32.83,10.65,11.24,29.09,11.23T346,416.56q10.95-11.52,10.95-32.83V295.31Zm60-21a21,21,0,1,1,0-42.05,20,20,0,0,1,14.69,6,21.56,21.56,0,0,1,0,30A20,20,0,0,1,449.77,274.29Zm16.13,21V454H433.07V295.31Z" transform="translate(-22.6 -99)"/><path class="cls-1" d="M70.9,142.8A21.52,21.52,0,0,1,49,120.9,21.52,21.52,0,0,1,70.9,99a20.83,20.83,0,0,1,15.3,6.3,22.46,22.46,0,0,1,0,31.2A20.83,20.83,0,0,1,70.9,142.8ZM87.7,362.4q0,24.3-12.3,35.1-12,11.1-35.1,11.1H22.6V379.8H34.3q10.5,0,14.7-4.2,4.5-3.9,4.5-13.2V164.7H87.7Zm116.6-29.7q-23.4,0-42.3-10.5a77.84,77.84,0,0,1-29.7-30q-10.8-19.5-10.8-45,0-25.2,11.1-44.7a76.67,76.67,0,0,1,30.3-30Q182.1,162,205.8,162t42.9,10.5a76.67,76.67,0,0,1,30.3,30q11.1,19.5,11.1,44.7t-11.4,44.7a79.72,79.72,0,0,1-31.2,30.3A89.65,89.65,0,0,1,204.3,332.7Zm0-29.7a50,50,0,0,0,24.6-6.3,47.7,47.7,0,0,0,18.9-18.9q7.2-12.6,7.2-30.6t-6.9-30.3A46.36,46.36,0,0,0,229.8,198a51.18,51.18,0,0,0-49.2,0q-11.1,6.3-17.7,18.9-6.6,12.3-6.6,30.3,0,26.7,13.5,41.4Q183.6,303,204.3,303Z" transform="translate(-22.6 -99)"/></svg>